<?xml version="1.0" encoding="utf-8"?>
<!-- Uploaded to: SVG Repo, www.svgrepo.com, Generator: SVG Repo Mixer Tools -->
<svg width="800px" height="800px" viewBox="0 -1.12 70.785 70.785" xmlns="http://www.w3.org/2000/svg">
  <g id="settings_preferences" data-name="settings preferences" transform="translate(-667.379 -1766.36)">
    <g id="Group_156" data-name="Group 156">
      <g id="Group_154" data-name="Group 154">
        <path id="Path_370" data-name="Path 370" d="M680.736,1832.669a2.243,2.243,0,0,1-2.234,2.236h-1.817a2.249,2.249,0,0,1-2.244-2.236v-64.076a2.245,2.245,0,0,1,2.244-2.233H678.5a2.239,2.239,0,0,1,2.234,2.233Z" fill="#516873"/>
      </g>
      <g id="Group_155" data-name="Group 155">
        <path id="Path_371" data-name="Path 371" d="M687.8,1794.474a10.212,10.212,0,1,1-10.214-10.209A10.209,10.209,0,0,1,687.8,1794.474Z" fill="#27b7ff"/>
        <path id="Path_372" data-name="Path 372" d="M683.6,1794.474a6.013,6.013,0,1,1-6.015-6.016A6.011,6.011,0,0,1,683.6,1794.474Z" fill="#ffffff"/>
      </g>
    </g>
    <g id="Group_159" data-name="Group 159">
      <g id="Group_157" data-name="Group 157">
        <path id="Rectangle_39" data-name="Rectangle 39" d="M2.236,0h1.82A2.233,2.233,0,0,1,6.29,2.233V66.312a2.232,2.232,0,0,1-2.232,2.232H2.234A2.234,2.234,0,0,1,0,66.311V2.236A2.236,2.236,0,0,1,2.236,0Z" transform="translate(699.627 1766.36)" fill="#516873"/>
      </g>
      <g id="Group_158" data-name="Group 158">
        <path id="Path_373" data-name="Path 373" d="M712.984,1811.821a10.212,10.212,0,1,1-10.21-10.211A10.215,10.215,0,0,1,712.984,1811.821Z" fill="#27b7ff"/>
        <path id="Path_374" data-name="Path 374" d="M708.79,1811.821a6.016,6.016,0,1,1-6.016-6.015A6.015,6.015,0,0,1,708.79,1811.821Z" fill="#ffffff"/>
      </g>
    </g>
    <g id="Group_162" data-name="Group 162">
      <g id="Group_160" data-name="Group 160">
        <path id="Rectangle_40" data-name="Rectangle 40" d="M2.236,0h1.82A2.233,2.233,0,0,1,6.29,2.233V66.312a2.232,2.232,0,0,1-2.232,2.232H2.234A2.234,2.234,0,0,1,0,66.311V2.236A2.236,2.236,0,0,1,2.236,0Z" transform="translate(724.808 1766.36)" fill="#516873"/>
      </g>
      <g id="Group_161" data-name="Group 161">
        <path id="Path_375" data-name="Path 375" d="M738.164,1783a10.209,10.209,0,1,1-10.209-10.211A10.209,10.209,0,0,1,738.164,1783Z" fill="#27b7ff"/>
        <path id="Path_376" data-name="Path 376" d="M733.966,1783a6.013,6.013,0,1,1-6.011-6.016A6.015,6.015,0,0,1,733.966,1783Z" fill="#ffffff"/>
      </g>
    </g>
  </g>
</svg>