<?xml version="1.0" standalone="no"?>
<!DOCTYPE svg PUBLIC "-//W3C//DTD SVG 20010904//EN"
 "http://www.w3.org/TR/2001/REC-SVG-20010904/DTD/svg10.dtd">
<svg version="1.0" xmlns="http://www.w3.org/2000/svg"
 width="500.000000pt" height="282.000000pt" viewBox="0 0 500.000000 282.000000"
 preserveAspectRatio="xMidYMid meet">

<g transform="translate(0.000000,282.000000) scale(0.100000,-0.100000)"
fill="#000000" stroke="none">
<path d="M2039 2217 c-68 -26 -115 -73 -150 -152 -11 -25 -56 -196 -99 -380
-114 -481 -156 -595 -253 -680 -28 -24 -44 -45 -39 -49 21 -13 158 24 238 64
61 30 96 56 142 104 97 105 119 160 225 586 54 216 106 400 122 433 19 42 24
62 17 69 -17 17 -161 20 -203 5z"/>
<path d="M3664 1870 c-32 -13 -74 -69 -74 -98 0 -15 14 -55 31 -90 51 -105 61
-143 64 -237 2 -49 7 -92 12 -94 13 -7 81 127 113 227 49 150 39 245 -30 286
-30 17 -82 20 -116 6z"/>
<path d="M2540 1854 c-228 -49 -405 -224 -456 -450 -60 -270 129 -473 420
-450 263 22 474 205 532 462 66 300 -170 508 -496 438z m155 -62 c64 -47 66
-226 4 -420 -76 -238 -176 -370 -264 -348 -45 11 -58 62 -52 196 4 97 10 133
42 230 74 226 157 347 240 349 11 0 25 -3 30 -7z"/>
<path d="M3165 1859 c-37 -11 -137 -70 -142 -84 -2 -6 12 -17 32 -23 70 -26
119 -115 157 -287 29 -131 37 -474 14 -604 -9 -52 -14 -96 -11 -99 9 -9 84 69
127 132 52 75 111 203 133 286 53 206 12 494 -87 614 -53 65 -139 90 -223 65z"/>
<path d="M1261 1373 c-67 -33 -119 -137 -106 -212 6 -39 39 -101 52 -101 5 0
17 19 28 41 24 50 73 79 133 79 112 0 142 143 42 195 -38 20 -107 19 -149 -2z"/>
<path d="M2788 861 c-54 -34 -78 -74 -78 -128 0 -55 32 -101 87 -125 64 -28
177 -22 247 13 68 34 70 49 9 49 -105 0 -182 73 -183 173 0 58 -14 61 -82 18z"/>
</g>
</svg>
