<svg height="133" preserveAspectRatio="xMidYMid" viewBox="0 0 512 133" width="512" xmlns="http://www.w3.org/2000/svg"><g fill-rule="evenodd"><g fill="#8e75ff" transform="translate(0 20.37877)"><path d="m110.293362 0h-74.2688882v37.2379068h36.5438453c1.3019041 0 2.3580846 1.0561805 2.3580846 2.3580846v36.0394652h37.7250473v-73.27306103c.001141-.62614952-.246794-1.22704566-.689145-1.67020512-.442351-.44315947-1.042793-.69219045-1.668944-.69219045z"/><path d="m36.0201629 0v37.2379068h-34.84102368c-.47876313-.0008491-.90966172-.2906101-1.0910478-.7336834s-.07737972-.9518146.26334716-1.2881479zm40.9151393 110.890331c-.339195.333159-.8450751.430479-1.2836691.246947-.4385941-.183532-.7243991-.612136-.7252294-1.087581v-34.4142404h37.7250433l-35.7161448 35.2505634z" opacity=".405"/><path d="m36.0201629 37.2379068h37.729354c.6466411 0 1.1768868.5259347 1.1768868 1.1768868v37.220663h-36.5438453c-1.3023341 0-2.3580846-1.0557505-2.3580846-2.3580846v-36.0394652z" opacity=".405"/></g><path d="m493.070419 18.0293077c2.10805 2.0864954 4.595463 3.1254321 7.466549 3.1254321 2.961617 0 5.49645-1.0389367 7.6045-3.1254321 2.10805-2.0864953 3.15992-4.5437316 3.15992-7.3846416 0-2.83659903-1.05187-5.31970094-3.15992-7.4493057-1.980351-2.07592324-4.735749-3.23337822-7.6045-3.19440715-2.871086 0-5.358499 1.06480239-7.466549 3.19009621-2.10805 2.1339157-3.15992 4.61270667-3.15992 7.45792764 0 2.836599 1.05187 5.2938353 3.15992 7.3803306zm-228.73852 27.2106585c0 .215547-.181059.3966065-.400917.3966065h-14.808082v27.67624c0 2.3063534.586288 3.9919312 1.750242 5.0567336s2.871087 1.6597122 5.112776 1.7933514c2.052008.1250173 4.552353.1163954 7.505348-.0215547l.418161-.0215547c.108869-.0059257.215376.0332287.294484.1082587.079108.0750301.123839.1793179.123677.2883479v14.7908379c.001204.2032525-.151445.3745171-.353497.3966065l-.271589.0301766c-11.596431 1.2199963-19.800151.0862188-24.602539-3.3970213-4.888607-3.5479043-7.3286-9.8892983-7.3286-19.0241819v-27.67624h-11.311908c-.21904 0-.396607-.1775668-.396607-.3966065v-15.7047574c0-.2155471.176749-.3966066.396607-.3966066h11.307597v-10.9799662c0-.3190097.189682-.6035317.478515-.73286l16.321222-7.1001195c.122901-.0557412.265713-.0451631.379061.0280771.113348.0732403.181676.1990909.181361.3340419v18.4508267h14.803771c.215547 0 .396606.1767486.396606.3966066v15.7047574zm31.469868-4.6558161c1.612292-4.2592095 4.280765-7.4536167 8.001106-9.5832214 3.670425-2.0896938 7.821165-3.1890309 12.044769-3.1900962.219858 0 .400918.1767485.400918.4009174v18.0412874c0 .1825646-.077763.356495-.213258.4788512s-.316398.1817357-.498048.1634789c-5.005002-.4483378-9.501313.6423302-13.484623 3.2676932-4.168679 2.7460693-6.250864 7.3156665-6.250864 13.7044808v31.4008929c.000007.1059378-.04237.2074751-.117683.2819784-.075313.0745034-.177303.1157797-.283234.1146516h-16.562635c-.21904 0-.396606-.1775902-.396606-.39663v-65.7375365c0-.215547.176748-.3966065.396606-.3966065h16.562635c.215547 0 .396606.1767486.396606.3966065v11.0446304zm82.06307-11.4455479c-.105932-.0011515-.207921.0401248-.283234.1146282-.075314.0745033-.11769.1760406-.117684.2819784v7.4579276c-5.198994-6.4793441-12.51035-9.7168606-21.929756-9.7168606-8.966757 0-16.661786 3.3927104-23.072155 10.1781313-6.41468 6.7854208-9.62202 15.1012256-9.62202 24.9474144 0 9.8461889 3.20734 18.1619937 9.62202 24.9474145 6.410369 6.7854209 14.105398 10.1781313 23.072155 10.1781313 9.419406 0 16.726451-3.2375165 21.929756-9.7125497v7.4536167c0 .2155471.18106.3966066.400918.3966066h16.558323c.219858 0 .400918-.1767486.400918-.3966066v-65.7375365c0-.1059378-.04237-.207475-.117684-.2819784-.075313-.0745033-.177302-.1157796-.283234-.1146281h-16.558323zm-32.418275 46.834061c3.496173 3.4616855 7.932131 5.1903728 13.320807 5.1903728 5.380054 0 9.841878-1.7545529 13.385471-5.2593478 3.543593-3.500484 5.311079-8.0011062 5.311079-13.5018667 0-5.5007604-1.767486-10.0013826-5.311079-13.5061775-3.543593-3.500484-8.005417-5.2550369-13.389782-5.2550369-5.380054 0-9.820323 1.7545529-13.320807 5.2593478-3.491862 3.500484-5.246415 8.0011062-5.246415 13.5018666 0 5.5007605 1.750242 10.0229374 5.250726 13.5708417zm126.526113-38.5182561c-6.41468-6.7854209-14.152819-10.1781313-23.210106-10.1781313-9.419405 0-16.683341 3.2375165-21.796116 9.7125496v-7.4536166c0-.2190398-.177567-.3966066-.396607-.3966066h-16.562635c-.219039 0-.396606.1775668-.396606.3966066v92.3403522c0 .219858.176748.400918.396606.400918h16.562635c.215547 0 .396607-.18106.396607-.400918v-34.0607434c5.112775 6.4750332 12.376711 9.7125497 21.796116 9.7125497 9.057287 0 16.795426-3.3927104 23.210106-10.1781313 6.410369-6.7854208 9.617709-15.1012256 9.617709-24.9474145 0-9.8461888-3.20734-18.1619936-9.617709-24.9474144zm-39.759807 38.5182561c3.500483 3.4616855 7.936442 5.1903728 13.320807 5.1903728 5.380054 0 9.841878-1.7545529 13.385471-5.2593478 3.543593-3.500484 5.31539-8.0011062 5.31539-13.5018667 0-5.5007604-1.771797-10.0013826-5.31539-13.5061775-3.543593-3.500484-8.005417-5.2550369-13.385471-5.2550369-5.384365 0-9.820324 1.7545529-13.320807 5.2593478-3.496173 3.500484-5.246415 8.0011062-5.246415 13.5018666 0 5.5007605 1.750242 10.0229374 5.246415 13.5708417zm60.111758 19.6923777c-.21904 0-.396606-.1775668-.396606-.3966066v-65.7375365c0-.215547.176748-.3966065.396606-.3966065h16.562635c.219858 0 .396606.1767486.396606.3966065v65.7418475c0 .2190397-.177566.3966065-.396606.3966065h-16.562635zm-309.460886-43.3077115c-2.379639-1.1079117-3.565148-2.5520769-3.565148-4.3238736 0-1.6855778.737171-3.0176586 2.220134-3.9919312 1.478653-.9742726 3.340979-1.4657199 5.582669-1.4657199 4.298008 0 7.544146 1.6597123 9.742726 4.9748257.151319.2322744.447147.3230191.702683.2155471l14.648577-6.410369c.102437-.0459349.180608-.133131.215121-.2399586.034514-.1068276.022136-.2232777-.034061-.3204637-.168699-.2810694-.341153-.5598686-.517313-.8363225-2.504657-3.9014015-5.750795-6.8112865-9.824634-9.0227992-4.483379-2.4399925-9.462515-3.6599887-14.933099-3.6599887-7.268247 0-13.342362 1.8838811-18.23528 5.6559543-4.884296 3.7677623-7.328599 8.9365803-7.328599 15.4978323 0 4.3497392 1.189819 7.9623077 3.565148 10.8463271 2.295643 2.823513 5.286174 5.0014164 8.677924 6.3198392 3.405643 1.3277698 6.815597 2.4399925 10.225551 3.3237354 3.405643.8880538 6.302596 1.888192 8.677924 2.9961038s3.565148 2.547766 3.565148 4.3238737c0 3.8151826-3.095255 5.7206184-9.281455 5.7206184-5.893057 0-9.975518-2.1554704-12.247383-6.4577893-.18926-.3763866-.638624-.5406502-1.026004-.3750519l-14.605468 6.4017471c-.09842.0431872-.175098.1244692-.21248.2252373-.037381.1007681-.032265.212393.014177.3093194l.163816.3319424c5.104154 10.0876016 14.407164 15.1314023 27.913342 15.1314023 7.712273 0 14.148507-1.8407717 19.304392-5.5180042 5.160197-3.6858544 7.738139-8.9408913 7.738139-15.7694215 0-4.5264879-1.189819-8.2942502-3.565148-11.3119087-2.239452-2.9120143-5.243769-5.1447309-8.677924-6.4491675-3.342442-1.265806-6.756941-2.3324772-10.225551-3.1944071-3.409954-.8449444-6.302596-1.8192171-8.677924-2.9314398z" fill="#2f2e8b"/></g></svg>